<?xml version="1.0" encoding="UTF-8"?>
<svg id="Layer_1" xmlns="http://www.w3.org/2000/svg" version="1.1" viewBox="0 0 1644.09 637.8">
  <!-- Generator: Adobe Illustrator 30.1.0, SVG Export Plug-In . SVG Version: 2.1.1 Build 136)  -->
  <defs>
    <style>
      .st0, .st1 {
        fill: none;
        stroke: #fff;
        stroke-miterlimit: 10;
      }

      .st2 {
        fill: #fff;
      }

      .st1 {
        stroke-width: 2px;
      }
    </style>
  </defs>
  <path class="st1" d="M721.59,105c0,61.3-56.16,110.9-125.56,110.9"/>
  <line class="st0" x1="596.02" y1="215.9" x2="596.02" y2="224.34"/>
  <line class="st0" x1="596.02" y1="207.46" x2="596.02" y2="215.9"/>
  <line class="st0" x1="596.02" y1="224.34" x2="581.47" y2="215.9"/>
  <line class="st0" x1="596.02" y1="207.46" x2="581.47" y2="215.9"/>
  <path class="st2" d="M591.82,214.9c-.68.45-1.39.83-2.16,1.1l1.85,1.05c.05.21,0-.12,0-.16-.02-.31-.08-.57-.21-.84-.19-.37-.44-.65-.82-.84-.8-.42-1.56-.12-2.37.06-1.49.34-2.83-.59-4.3-.68l.76,2.8c2.11-1,4.18-2.06,6.21-3.2.97-.54,1.95-1.09,2.88-1.69s1.9-1.31,2.4-2.34l-2.8-.76c-.09,1-.19,2.01-.25,3.02-.07,1.11.13,2.15.23,3.25.21,2.17.16,4.37.21,6.55l2.8-.76c-1.12-1.51-2.76-2.28-4.23-3.38s-2.79-2.18-4.56-2.51c-1.15-.22-2.09.67-1.85,1.85s1.15,2.18,2.21,2.74c1.2.64,2.95,1.38,4.1.29,1.79-1.69,2.05-4.82,2.28-7.11.08-.81-.75-1.5-1.5-1.5-.89,0-1.41.69-1.5,1.5-.12,1.06-.14,2.11.03,3.17.14.92.61,1.8.64,2.73l2.95-.4c-.63-2.46-1.77-5.26-4.57-5.81l-.8,2.89c.66.13,1.3.19,1.97.1.8-.11,1.5-.61,1.5-1.5,0-.8-.69-1.52-1.5-1.5-.71.02-1.42.06-2.12.13-.81.08-1.5.63-1.5,1.5,0,.75.69,1.58,1.5,1.5.71-.07,1.41-.11,2.12-.13v-3c-.39.05-.78.08-1.17,0-.79-.16-1.62.23-1.85,1.05-.2.74.25,1.69,1.05,1.85,1.62.32,2.09,2.21,2.47,3.71.41,1.62,3,1.31,2.95-.4-.04-1.08-.45-2.03-.67-3.07-.19-.92-.1-1.9,0-2.83h-3c-.14,1.41-.3,3.01-.95,4.3-.07.14-.22.3-.26.44-.03.03-.05.07-.07.11l.51-.19s-.84-.29-.91-.33c-.56-.25-.92-.51-1.03-1.05l-1.85,1.85c1.44.27,2.55,1.23,3.69,2.09.59.44,1.2.85,1.82,1.24.52.33,1.12.68,1.49,1.18.4.54,1,.88,1.69.69.62-.17,1.12-.79,1.1-1.45-.05-2.17,0-4.38-.21-6.55-.1-1.06-.3-2.06-.24-3.13s.17-2.09.26-3.13c.13-1.47-2.16-2.07-2.8-.76-.37.76-1.2,1.2-1.92,1.63-.89.54-1.8,1.05-2.71,1.56-1.9,1.05-3.83,2.04-5.79,2.96-.59.28-.85,1.1-.69,1.69.18.66.78,1.06,1.45,1.1.45.03.9.24,1.32.38.53.18,1.07.28,1.63.34s1.12.02,1.68-.07c.23-.04.46-.08.69-.14.12-.04.25-.07.37-.11.49-.09.22-.23-.8-.43l-.2-.76c.04.35.04.69.12,1.04.17.75,1.11,1.31,1.85,1.05,1.01-.35,1.98-.81,2.88-1.4.68-.44.96-1.33.54-2.05-.39-.67-1.37-.99-2.05-.54h0Z"/>
</svg>